<svg xmlns="http://www.w3.org/2000/svg" xmlns:svg="http://www.w3.org/2000/svg" id="svg14360" width="16" height="16" version="1.1" viewBox="0 0 16 16"><metadata id="metadata14366"/><path id="path14356" d="M 8,4 C 5.792,4 4,5.792 4,8 c 0,2.208 1.792,4 4,4 2.208,0 4,-1.792 4,-4 C 12,5.792 10.208,4 8,4 Z M 8,0 C 3.584,0 0,3.584 0,8 c 0,4.416 3.584,8 8,8 4.416,0 8,-3.584 8,-8 C 16,3.584 12.416,0 8,0 Z M 8,14.4 C 4.464,14.4 1.6,11.536 1.6,8 1.6,4.464 4.464,1.6 8,1.6 c 3.536,0 6.4,2.864 6.4,6.4 0,3.536 -2.864,6.4 -6.4,6.4 z" style="fill:#fc9c9c;fill-opacity:1;stroke-width:.80000001"/><path id="path14358" d="M 0,-8 H 24 V 16 H 0 Z" style="fill:none"/></svg>