<svg xmlns="http://www.w3.org/2000/svg" xmlns:svg="http://www.w3.org/2000/svg" id="svg6553" width="16" height="16" version="1.1" viewBox="0 0 16 16"><metadata id="metadata6559"/><path id="path6549" d="M 0,-8 H 24 V 16 H 0 Z m 0,0 H 24 V 16 H 0 Z m 0,0 H 24 V 16 H 0 Z" style="fill:none"/><path id="path6551" d="M 14.222222,0 H 1.7777778 C 0.8,0 0,0.8 0,1.7777778 V 14.222222 C 0,15.2 0.8,16 1.7777778,16 H 14.222222 C 15.2,16 16,15.2 16,14.222222 V 1.7777778 C 16,0.8 15.2,0 14.222222,0 Z M 2.6666667,3.5555556 H 7.111111 V 4.8888889 H 2.6666667 Z M 14.222222,14.222222 H 1.7777778 L 14.222222,1.7777778 Z m -4,-2.666666 v 1.777777 h 1.333334 v -1.777777 h 1.777777 V 10.222222 H 11.555556 V 8.444444 h -1.333334 v 1.777778 H 8.444444 v 1.333334 z" style="fill:#fc9c9c;fill-opacity:1;stroke-width:.8888889"/></svg>